<mxfile host="app.diagrams.net" modified="2023-08-07T15:38:52.879Z" agent="Mozilla/5.0 (Macintosh; Intel Mac OS X 10_15_7) AppleWebKit/537.36 (KHTML, like Gecko) Chrome/115.0.0.0 Safari/537.36" version="21.6.6" etag="uuF79rGl8T4scFo1ZiNM" type="github">
  <diagram name="第 1 页" id="KcUhiuk5jluG5midPW6s">
    <mxGraphModel>
      <root>
        <mxCell id="0" />
        <mxCell id="1" parent="0" />
      </root>
    </mxGraphModel>
  </diagram>
</mxfile>
